<svg width="25" height="25" viewBox="0 0 25 25" fill="none" xmlns="http://www.w3.org/2000/svg">
<path d="M15.4005 19.7908C15.2105 19.7908 15.0205 19.7208 14.8705 19.5708C14.5805 19.2808 14.5805 18.8008 14.8705 18.5108L20.4105 12.9708L14.8705 7.43082C14.5805 7.14082 14.5805 6.66082 14.8705 6.37082C15.1605 6.08082 15.6405 6.08082 15.9305 6.37082L22.0005 12.4408C22.2905 12.7308 22.2905 13.2108 22.0005 13.5008L15.9305 19.5708C15.7805 19.7208 15.5905 19.7908 15.4005 19.7908Z" fill="#17202A"/>
<path d="M21.3006 13.7207H4.47055C4.06055 13.7207 3.72055 13.3807 3.72055 12.9707C3.72055 12.5607 4.06055 12.2207 4.47055 12.2207H21.3006C21.7106 12.2207 22.0506 12.5607 22.0506 12.9707C22.0506 13.3807 21.7106 13.7207 21.3006 13.7207Z" fill="#17202A"/>
</svg>
