<svg width="24" height="24" viewBox="0 0 24 24" fill="none" xmlns="http://www.w3.org/2000/svg">
<path d="M5.58676 7.72119H0.768719C0.554887 7.72119 0.381622 7.89453 0.381622 8.10829V23.5866C0.381622 23.8004 0.554887 23.9737 0.768719 23.9737H5.58676C5.80059 23.9737 5.97385 23.8004 5.97385 23.5866V8.10829C5.97385 7.89453 5.80059 7.72119 5.58676 7.72119Z" fill="#17202A"/>
<path d="M3.1793 0.0263672C1.42622 0.0263672 0 1.45104 0 3.20219C0 4.95411 1.42622 6.37932 3.1793 6.37932C4.93099 6.37932 6.35605 4.95403 6.35605 3.20219C6.35613 1.45104 4.93099 0.0263672 3.1793 0.0263672Z" fill="#17202A"/>
<path d="M17.8415 7.33643C15.9064 7.33643 14.4759 8.1683 13.6082 9.11351V8.10822C13.6082 7.89446 13.435 7.72112 13.2212 7.72112H8.60704C8.3932 7.72112 8.21994 7.89446 8.21994 8.10822V23.5865C8.21994 23.8003 8.3932 23.9736 8.60704 23.9736H13.4145C13.6284 23.9736 13.8016 23.8003 13.8016 23.5865V15.9283C13.8016 13.3477 14.5026 12.3424 16.3015 12.3424C18.2607 12.3424 18.4164 13.9541 18.4164 16.0611V23.5866C18.4164 23.8004 18.5896 23.9737 18.8035 23.9737H23.6128C23.8266 23.9737 23.9999 23.8004 23.9999 23.5866V15.0965C23.9999 11.2592 23.2682 7.33643 17.8415 7.33643Z" fill="#17202A"/>
</svg>
