<svg width="24" height="20" viewBox="0 0 24 20" fill="none" xmlns="http://www.w3.org/2000/svg">
<path d="M23.456 2.44298C23.0789 2.61021 22.6913 2.75134 22.2952 2.86593C22.7641 2.3356 23.1217 1.7116 23.3399 1.02876C23.3888 0.875706 23.3381 0.70817 23.2123 0.608067C23.0867 0.507887 22.9121 0.495887 22.7737 0.577874C21.9326 1.07676 21.0251 1.43529 20.0735 1.64494C19.115 0.708325 17.8131 0.175293 16.4672 0.175293C13.6263 0.175293 11.3151 2.48649 11.3151 5.32732C11.3151 5.55106 11.3292 5.77356 11.3573 5.99297C7.83196 5.68345 4.55457 3.95073 2.30399 1.19003C2.22378 1.09163 2.10022 1.0386 1.97372 1.04874C1.84714 1.05865 1.73341 1.13003 1.66946 1.23973C1.21299 2.02298 0.971678 2.9188 0.971678 3.83026C0.971678 5.07168 1.4149 6.24954 2.19785 7.1699C1.95978 7.08745 1.72876 6.9844 1.50827 6.862C1.3899 6.79612 1.24543 6.79713 1.12783 6.86456C1.01016 6.93199 0.936375 7.05602 0.933279 7.19158C0.932737 7.21442 0.932737 7.23725 0.932737 7.2604C0.932737 9.11343 1.93005 10.7817 3.45483 11.691C3.32383 11.678 3.19292 11.659 3.06285 11.6341C2.92876 11.6085 2.79088 11.6555 2.70045 11.7578C2.60987 11.86 2.57991 12.0024 2.62164 12.1325C3.18603 13.8945 4.63911 15.1906 6.39576 15.5858C4.9388 16.4983 3.27266 16.9763 1.5236 16.9763C1.15865 16.9763 0.791601 16.9549 0.432375 16.9124C0.253924 16.8911 0.0832914 16.9965 0.0225172 17.1662C-0.038257 17.336 0.0261559 17.5253 0.177975 17.6226C2.42492 19.0633 5.02303 19.8248 7.69129 19.8248C12.9368 19.8248 16.2182 17.3512 18.0472 15.2762C20.328 12.6887 21.6361 9.26394 21.6361 5.88002C21.6361 5.73865 21.6339 5.59589 21.6296 5.45359C22.5294 4.77563 23.3041 3.95514 23.9346 3.01209C24.0303 2.86887 24.02 2.67958 23.909 2.54773C23.7982 2.41581 23.6136 2.37315 23.456 2.44298Z" fill="#17202A"/>
</svg>
